<svg id="Layer_1" data-name="Layer 1" xmlns="http://www.w3.org/2000/svg" viewBox="0 0 117.4 20"><defs><style>.cls-1{fill:#fff;}</style></defs><title>Artboard 1</title><path class="cls-1" d="M0,.81H8.47c5,0,8.41,2.23,8.41,6.69v.05c0,4.54-3.47,7-8.55,7h-2v5.11H0ZM8,10C9.6,10,10.67,9.3,10.67,8V7.9c0-1.37-1-2.07-2.66-2.07H6.29V10Z"/><path class="cls-1" d="M17.47,12.34v-.05c0-4.14,3.44-7.69,8.28-7.69S34,8.09,34,12.23v.05C34,16.42,30.54,20,25.7,20S17.47,16.48,17.47,12.34Zm10.65,0v-.05A2.51,2.51,0,0,0,25.7,9.68a2.43,2.43,0,0,0-2.37,2.55v.05a2.51,2.51,0,0,0,2.42,2.61A2.43,2.43,0,0,0,28.12,12.34Z"/><path class="cls-1" d="M34.17,17.85l2.07-3.47A10.63,10.63,0,0,0,41.67,16c.59,0,.89-.13.89-.48v-.05c0-.3-.27-.48-1.75-.86-3.71-.91-6-1.91-6-4.95V9.62c0-3.23,2.58-5,6.4-5A13,13,0,0,1,47.8,6.29L45.86,9.92a10.84,10.84,0,0,0-4.68-1.37c-.59,0-.86.16-.86.46v.05c0,.3.32.48,1.8.86,3.71.91,5.94,1.94,5.94,4.95v.05c0,3.2-2.39,5.05-6.37,5.05A13.43,13.43,0,0,1,34.17,17.85Z"/><path class="cls-1" d="M50.19,14.7V9.65H48.47V4.95h1.72V1.26h6.1V4.95h3.39v4.7H56.29v3.71c0,1.1.51,1.51,1.48,1.51a4.58,4.58,0,0,0,1.85-.46v4.7a8.8,8.8,0,0,1-3.9.83C52.13,19.95,50.19,18.28,50.19,14.7Z"/><path class="cls-1" d="M61.11,0h6.1V19.62h-6.1Z"/><path class="cls-1" d="M68.63,12.34v-.05c0-4.14,3.44-7.69,8.28-7.69s8.23,3.49,8.23,7.63v.05c0,4.14-3.44,7.69-8.28,7.69S68.63,16.48,68.63,12.34Zm10.65,0v-.05a2.51,2.51,0,0,0-2.42-2.61,2.43,2.43,0,0,0-2.37,2.55v.05a2.51,2.51,0,0,0,2.42,2.61A2.43,2.43,0,0,0,79.28,12.34Z"/><path class="cls-1" d="M86.05,12.37v-.05a7.71,7.71,0,0,1,8-7.69,7,7,0,0,1,6.64,4.06l-4.38,2.47a2.36,2.36,0,0,0-2.15-1.48,2.39,2.39,0,0,0-2.26,2.58v.05a2.39,2.39,0,0,0,2.18,2.63,2.54,2.54,0,0,0,2.29-1.48L100.81,16a7.41,7.41,0,0,1-7,4A7.61,7.61,0,0,1,86.05,12.37Z"/><path class="cls-1" d="M100.89,12.34v-.05c0-4.14,3.44-7.69,8.28-7.69s8.23,3.49,8.23,7.63v.05c0,4.14-3.44,7.69-8.28,7.69S100.89,16.48,100.89,12.34Zm10.65,0v-.05a2.51,2.51,0,0,0-2.42-2.61,2.43,2.43,0,0,0-2.37,2.55v.05a2.51,2.51,0,0,0,2.42,2.61A2.43,2.43,0,0,0,111.54,12.34Z"/></svg>